<svg width="271" height="134" viewBox="0 0 271 134" fill="none" xmlns="http://www.w3.org/2000/svg">
<path d="M16.0072 78.6134C16.0072 74.1914 17.2828 70.216 19.8341 66.7767C22.3853 63.3374 25.6361 61.104 29.6276 60.1214C30.6975 54.8954 33.1253 50.5627 36.9522 47.2574C40.7791 43.9074 45.1821 42.2547 50.2024 42.2547C55.058 42.2547 59.4198 43.8627 63.2056 47.1234C67.0325 50.384 69.5014 54.538 70.6125 59.63H71.7235C76.5791 59.63 80.6941 61.4614 84.1095 65.1687C87.5249 68.876 89.2532 73.3427 89.2532 78.5687C89.2532 83.8394 87.5249 88.306 84.1095 92.0134C80.6941 95.7207 76.5791 97.5967 71.7235 97.5967H33.578C31.1913 97.5967 28.9281 97.1054 26.7883 96.078C24.6486 95.0507 22.7145 93.8 21.1509 92.1027C19.5872 90.4054 18.3527 88.3507 17.4063 86.028C16.4598 83.7054 16.0072 81.1594 16.0072 78.6134ZM21.9738 78.6134C21.9738 82.008 23.126 84.956 25.3481 87.368C27.5702 89.78 30.3272 91.0307 33.5368 91.0307H71.7235C74.892 91.0307 77.649 89.8247 79.9122 87.368C82.1755 84.9114 83.3277 82.008 83.3277 78.6134C83.3277 75.2187 82.2166 72.2707 79.9122 69.8587C77.649 67.4467 74.9332 66.196 71.7235 66.196H66.0037C65.5922 66.196 65.3865 65.9727 65.3865 65.526L65.0984 63.3374C64.687 59.1387 63.041 55.61 60.2017 52.8407C57.3624 50.0714 53.9881 48.6867 50.1201 48.6867C46.252 48.6867 42.8778 50.0714 39.9973 52.8854C37.1168 55.6547 35.512 59.1834 35.1417 63.3374L34.8536 65.2134C34.8536 65.66 34.6479 65.8834 34.1952 65.8834L32.3435 66.196C29.3807 66.464 26.9118 67.804 24.8955 70.1714C23.0026 72.5387 21.9738 75.3527 21.9738 78.6134ZM58.3911 39.664C57.9796 40.066 58.0619 40.3787 58.6791 40.602C60.4486 41.4507 61.9299 42.2547 63.1233 43.0587C63.5759 43.1927 63.9051 43.148 64.0286 42.9247C66.5387 40.3787 69.4191 39.0834 72.7522 39.0834C76.0853 39.0834 78.9247 40.2894 81.3936 42.7014C83.8214 45.1134 85.1794 48.106 85.4674 51.6347L85.8378 54.4934H91.681C94.3557 54.4934 96.6601 55.5207 98.5941 57.62C100.528 59.7194 101.475 62.176 101.475 65.0347C101.475 67.7147 100.61 70.0374 98.9233 72.0474C97.2362 74.0574 95.1375 75.174 92.6274 75.4867C92.2159 75.4867 92.0102 75.71 92.0102 76.2014V81.2487C92.0102 81.74 92.2159 81.9634 92.6274 81.9634C96.7835 81.6954 100.281 79.9087 103.121 76.648C105.96 73.3874 107.4 69.5014 107.4 65.0347C107.4 60.3 105.878 56.28 102.791 52.9747C99.7051 49.6247 96.0017 47.972 91.681 47.972H91.0637C89.9939 43.5054 87.7306 39.8427 84.2741 36.9394C80.8587 34.036 76.9906 32.6067 72.7522 32.6067C66.9913 32.562 62.1768 34.9294 58.3911 39.664Z" fill="#2C2828"/>
<g filter="url(#filter0_d)">
<path d="M94.7356 69.5336H98.2916L92.1596 84.2056H89.0796L86.5596 77.7656L84.0676 84.2056H80.9876L74.8836 69.5336H78.4116L82.7796 80.6776L84.5716 75.9176L81.9956 69.5616H85.0196L86.5596 74.0696L88.1276 69.5616H91.1516L88.6036 75.9176L90.3676 80.6776L94.7356 69.5336ZM108.688 84.4856C107.512 84.4856 106.448 84.2896 105.496 83.8976C104.544 83.4869 103.732 82.9362 103.06 82.2456C102.388 81.5549 101.866 80.7522 101.492 79.8376C101.138 78.9229 100.96 77.9616 100.96 76.9536C100.96 75.9082 101.138 74.9282 101.492 74.0136C101.847 73.0802 102.36 72.2682 103.032 71.5776C103.704 70.8682 104.516 70.3082 105.468 69.8976C106.439 69.4869 107.522 69.2816 108.716 69.2816C109.911 69.2816 110.975 69.4869 111.908 69.8976C112.86 70.3082 113.663 70.8589 114.316 71.5496C114.988 72.2402 115.492 73.0429 115.828 73.9576C116.183 74.8722 116.36 75.8242 116.36 76.8136C116.36 77.0562 116.351 77.2896 116.332 77.5136C116.332 77.7376 116.314 77.9242 116.276 78.0736H104.936C104.992 78.6522 105.132 79.1656 105.356 79.6136C105.58 80.0616 105.87 80.4442 106.224 80.7616C106.579 81.0789 106.98 81.3216 107.428 81.4896C107.876 81.6576 108.343 81.7416 108.828 81.7416C109.575 81.7416 110.275 81.5642 110.928 81.2096C111.6 80.8362 112.058 80.3509 112.3 79.7536L115.52 80.6496C114.979 81.7696 114.111 82.6936 112.916 83.4216C111.74 84.1309 110.331 84.4856 108.688 84.4856ZM112.496 75.6376C112.403 74.5362 111.992 73.6589 111.264 73.0056C110.555 72.3336 109.687 71.9976 108.66 71.9976C108.156 71.9976 107.68 72.0909 107.232 72.2776C106.803 72.4456 106.42 72.6882 106.084 73.0056C105.748 73.3229 105.468 73.7056 105.244 74.1536C105.039 74.6016 104.918 75.0962 104.88 75.6376H112.496ZM125.03 84.4856C124.321 84.4856 123.658 84.3736 123.042 84.1496C122.426 83.9069 121.894 83.5802 121.446 83.1696C120.998 82.7402 120.643 82.2456 120.382 81.6856C120.139 81.1256 120.018 80.5096 120.018 79.8376C120.018 79.1469 120.167 78.5122 120.466 77.9336C120.783 77.3362 121.213 76.8322 121.754 76.4216C122.314 76.0109 122.977 75.6936 123.742 75.4696C124.507 75.2269 125.347 75.1056 126.262 75.1056C126.915 75.1056 127.55 75.1616 128.166 75.2736C128.801 75.3856 129.361 75.5442 129.846 75.7496V74.9096C129.846 73.9389 129.566 73.1922 129.006 72.6696C128.465 72.1469 127.653 71.8856 126.57 71.8856C125.786 71.8856 125.021 72.0256 124.274 72.3056C123.527 72.5856 122.762 72.9962 121.978 73.5376L120.83 71.1576C122.715 69.9069 124.75 69.2816 126.934 69.2816C129.043 69.2816 130.677 69.8042 131.834 70.8496C133.01 71.8762 133.598 73.3696 133.598 75.3296V79.8936C133.598 80.2856 133.663 80.5656 133.794 80.7336C133.943 80.9016 134.177 80.9949 134.494 81.0136V84.2056C133.859 84.3362 133.309 84.4016 132.842 84.4016C132.133 84.4016 131.582 84.2429 131.19 83.9256C130.817 83.6082 130.583 83.1882 130.49 82.6656L130.406 81.8536C129.753 82.7122 128.959 83.3656 128.026 83.8136C127.093 84.2616 126.094 84.4856 125.03 84.4856ZM126.094 81.7416C126.729 81.7416 127.326 81.6296 127.886 81.4056C128.465 81.1816 128.913 80.8829 129.23 80.5096C129.641 80.1922 129.846 79.8376 129.846 79.4456V77.7656C129.398 77.5976 128.913 77.4669 128.39 77.3736C127.867 77.2616 127.363 77.2056 126.878 77.2056C125.907 77.2056 125.114 77.4296 124.498 77.8776C123.882 78.3069 123.574 78.8576 123.574 79.5296C123.574 80.1642 123.817 80.6962 124.302 81.1256C124.787 81.5362 125.385 81.7416 126.094 81.7416ZM148.167 83.4496C147.663 83.6736 147.047 83.8976 146.319 84.1216C145.591 84.3456 144.825 84.4576 144.023 84.4576C143.5 84.4576 143.005 84.3922 142.539 84.2616C142.091 84.1309 141.689 83.9256 141.335 83.6456C140.999 83.3469 140.728 82.9736 140.523 82.5256C140.317 82.0589 140.215 81.4989 140.215 80.8456V72.4176H138.283V69.5336H140.215V64.7736H143.967V69.5336H147.047V72.4176H143.967V79.5856C143.967 80.1082 144.097 80.4816 144.359 80.7056C144.639 80.9109 144.975 81.0136 145.367 81.0136C145.759 81.0136 146.141 80.9482 146.515 80.8176C146.888 80.6869 147.187 80.5749 147.411 80.4816L148.167 83.4496ZM166.137 84.2056H162.385V75.9736C162.385 74.8162 162.17 73.9669 161.741 73.4256C161.312 72.8656 160.705 72.5856 159.921 72.5856C159.585 72.5856 159.23 72.6602 158.857 72.8096C158.484 72.9589 158.129 73.1736 157.793 73.4536C157.457 73.7149 157.149 74.0322 156.869 74.4056C156.589 74.7789 156.384 75.1896 156.253 75.6376V84.2056H152.501V63.7656H156.253V72.2496C156.794 71.2976 157.522 70.5696 158.437 70.0656C159.37 69.5429 160.397 69.2816 161.517 69.2816C162.469 69.2816 163.244 69.4496 163.841 69.7856C164.438 70.1029 164.905 70.5322 165.241 71.0736C165.577 71.6149 165.81 72.2309 165.941 72.9216C166.072 73.6122 166.137 74.3216 166.137 75.0496V84.2056ZM178.583 84.4856C177.407 84.4856 176.343 84.2896 175.391 83.8976C174.439 83.4869 173.627 82.9362 172.955 82.2456C172.283 81.5549 171.761 80.7522 171.387 79.8376C171.033 78.9229 170.855 77.9616 170.855 76.9536C170.855 75.9082 171.033 74.9282 171.387 74.0136C171.742 73.0802 172.255 72.2682 172.927 71.5776C173.599 70.8682 174.411 70.3082 175.363 69.8976C176.334 69.4869 177.417 69.2816 178.611 69.2816C179.806 69.2816 180.87 69.4869 181.803 69.8976C182.755 70.3082 183.558 70.8589 184.211 71.5496C184.883 72.2402 185.387 73.0429 185.723 73.9576C186.078 74.8722 186.255 75.8242 186.255 76.8136C186.255 77.0562 186.246 77.2896 186.227 77.5136C186.227 77.7376 186.209 77.9242 186.171 78.0736H174.831C174.887 78.6522 175.027 79.1656 175.251 79.6136C175.475 80.0616 175.765 80.4442 176.119 80.7616C176.474 81.0789 176.875 81.3216 177.323 81.4896C177.771 81.6576 178.238 81.7416 178.723 81.7416C179.47 81.7416 180.17 81.5642 180.823 81.2096C181.495 80.8362 181.953 80.3509 182.195 79.7536L185.415 80.6496C184.874 81.7696 184.006 82.6936 182.811 83.4216C181.635 84.1309 180.226 84.4856 178.583 84.4856ZM182.391 75.6376C182.298 74.5362 181.887 73.6589 181.159 73.0056C180.45 72.3336 179.582 71.9976 178.555 71.9976C178.051 71.9976 177.575 72.0909 177.127 72.2776C176.698 72.4456 176.315 72.6882 175.979 73.0056C175.643 73.3229 175.363 73.7056 175.139 74.1536C174.934 74.6016 174.813 75.0962 174.775 75.6376H182.391ZM199.657 72.7816C198.518 72.8002 197.501 73.0242 196.605 73.4536C195.709 73.8642 195.065 74.4896 194.673 75.3296V84.2056H190.921V69.5336H194.365V72.6696C194.626 72.1656 194.934 71.7176 195.289 71.3256C195.644 70.9149 196.026 70.5602 196.437 70.2616C196.848 69.9629 197.258 69.7389 197.669 69.5896C198.098 69.4216 198.509 69.3376 198.901 69.3376C199.106 69.3376 199.256 69.3376 199.349 69.3376C199.461 69.3376 199.564 69.3469 199.657 69.3656V72.7816ZM216.556 84.4856C215.847 84.4856 215.184 84.3736 214.568 84.1496C213.952 83.9069 213.42 83.5802 212.972 83.1696C212.524 82.7402 212.169 82.2456 211.908 81.6856C211.665 81.1256 211.544 80.5096 211.544 79.8376C211.544 79.1469 211.693 78.5122 211.992 77.9336C212.309 77.3362 212.739 76.8322 213.28 76.4216C213.84 76.0109 214.503 75.6936 215.268 75.4696C216.033 75.2269 216.873 75.1056 217.788 75.1056C218.441 75.1056 219.076 75.1616 219.692 75.2736C220.327 75.3856 220.887 75.5442 221.372 75.7496V74.9096C221.372 73.9389 221.092 73.1922 220.532 72.6696C219.991 72.1469 219.179 71.8856 218.096 71.8856C217.312 71.8856 216.547 72.0256 215.8 72.3056C215.053 72.5856 214.288 72.9962 213.504 73.5376L212.356 71.1576C214.241 69.9069 216.276 69.2816 218.46 69.2816C220.569 69.2816 222.203 69.8042 223.36 70.8496C224.536 71.8762 225.124 73.3696 225.124 75.3296V79.8936C225.124 80.2856 225.189 80.5656 225.32 80.7336C225.469 80.9016 225.703 80.9949 226.02 81.0136V84.2056C225.385 84.3362 224.835 84.4016 224.368 84.4016C223.659 84.4016 223.108 84.2429 222.716 83.9256C222.343 83.6082 222.109 83.1882 222.016 82.6656L221.932 81.8536C221.279 82.7122 220.485 83.3656 219.552 83.8136C218.619 84.2616 217.62 84.4856 216.556 84.4856ZM217.62 81.7416C218.255 81.7416 218.852 81.6296 219.412 81.4056C219.991 81.1816 220.439 80.8829 220.756 80.5096C221.167 80.1922 221.372 79.8376 221.372 79.4456V77.7656C220.924 77.5976 220.439 77.4669 219.916 77.3736C219.393 77.2616 218.889 77.2056 218.404 77.2056C217.433 77.2056 216.64 77.4296 216.024 77.8776C215.408 78.3069 215.1 78.8576 215.1 79.5296C215.1 80.1642 215.343 80.6962 215.828 81.1256C216.313 81.5362 216.911 81.7416 217.62 81.7416ZM239.802 84.4856C238.645 84.4856 237.637 84.2336 236.778 83.7296C235.92 83.2069 235.248 82.5069 234.762 81.6296V90.1696H231.01V69.5336H234.286V72.0536C234.828 71.1949 235.528 70.5229 236.386 70.0376C237.245 69.5336 238.234 69.2816 239.354 69.2816C240.344 69.2816 241.258 69.4869 242.098 69.8976C242.938 70.2896 243.657 70.8309 244.254 71.5216C244.87 72.1936 245.346 72.9962 245.682 73.9296C246.037 74.8442 246.214 75.8149 246.214 76.8416C246.214 77.9056 246.056 78.9042 245.738 79.8376C245.421 80.7709 244.973 81.5829 244.394 82.2736C243.834 82.9642 243.162 83.5056 242.378 83.8976C241.594 84.2896 240.736 84.4856 239.802 84.4856ZM238.542 81.2936C239.102 81.2936 239.616 81.1722 240.082 80.9296C240.568 80.6869 240.978 80.3602 241.314 79.9496C241.65 79.5389 241.912 79.0629 242.098 78.5216C242.285 77.9802 242.378 77.4202 242.378 76.8416C242.378 76.2256 242.276 75.6562 242.07 75.1336C241.865 74.5922 241.576 74.1256 241.202 73.7336C240.848 73.3416 240.418 73.0336 239.914 72.8096C239.429 72.5856 238.897 72.4736 238.318 72.4736C237.964 72.4736 237.6 72.5389 237.226 72.6696C236.853 72.7816 236.508 72.9496 236.19 73.1736C235.873 73.3976 235.584 73.6589 235.322 73.9576C235.08 74.2562 234.893 74.5829 234.762 74.9376V78.3816C235.098 79.2216 235.612 79.9216 236.302 80.4816C236.993 81.0229 237.74 81.2936 238.542 81.2936ZM259.928 84.4856C258.771 84.4856 257.763 84.2336 256.904 83.7296C256.046 83.2069 255.374 82.5069 254.888 81.6296V90.1696H251.136V69.5336H254.412V72.0536C254.954 71.1949 255.654 70.5229 256.512 70.0376C257.371 69.5336 258.36 69.2816 259.48 69.2816C260.47 69.2816 261.384 69.4869 262.224 69.8976C263.064 70.2896 263.783 70.8309 264.38 71.5216C264.996 72.1936 265.472 72.9962 265.808 73.9296C266.163 74.8442 266.34 75.8149 266.34 76.8416C266.34 77.9056 266.182 78.9042 265.864 79.8376C265.547 80.7709 265.099 81.5829 264.52 82.2736C263.96 82.9642 263.288 83.5056 262.504 83.8976C261.72 84.2896 260.862 84.4856 259.928 84.4856ZM258.668 81.2936C259.228 81.2936 259.742 81.1722 260.208 80.9296C260.694 80.6869 261.104 80.3602 261.44 79.9496C261.776 79.5389 262.038 79.0629 262.224 78.5216C262.411 77.9802 262.504 77.4202 262.504 76.8416C262.504 76.2256 262.402 75.6562 262.196 75.1336C261.991 74.5922 261.702 74.1256 261.328 73.7336C260.974 73.3416 260.544 73.0336 260.04 72.8096C259.555 72.5856 259.023 72.4736 258.444 72.4736C258.09 72.4736 257.726 72.5389 257.352 72.6696C256.979 72.7816 256.634 72.9496 256.316 73.1736C255.999 73.3976 255.71 73.6589 255.448 73.9576C255.206 74.2562 255.019 74.5829 254.888 74.9376V78.3816C255.224 79.2216 255.738 79.9216 256.428 80.4816C257.119 81.0229 257.866 81.2936 258.668 81.2936Z" fill="#FFFBFB"/>
</g>
<defs>
<filter id="filter0_d" x="70.8836" y="63.7656" width="199.457" height="34.404" filterUnits="userSpaceOnUse" color-interpolation-filters="sRGB">
<feFlood flood-opacity="0" result="BackgroundImageFix"/>
<feColorMatrix in="SourceAlpha" type="matrix" values="0 0 0 0 0 0 0 0 0 0 0 0 0 0 0 0 0 0 127 0"/>
<feOffset dy="4"/>
<feGaussianBlur stdDeviation="2"/>
<feColorMatrix type="matrix" values="0 0 0 0 0 0 0 0 0 0 0 0 0 0 0 0 0 0 0.25 0"/>
<feBlend mode="normal" in2="BackgroundImageFix" result="effect1_dropShadow"/>
<feBlend mode="normal" in="SourceGraphic" in2="effect1_dropShadow" result="shape"/>
</filter>
</defs>
</svg>
